<svg width="1500" height="1500" viewBox="0 0 1500 1500" fill="none" xmlns="http://www.w3.org/2000/svg">
<path d="M86 386C86 220.315 220.315 86 386 86H1113C1278.69 86 1413 220.315 1413 386V1363C1413 1390.61 1390.61 1413 1363 1413H386C220.315 1413 86 1278.69 86 1113V386Z" fill="black"/>
<path d="M550.5 574L426 925H319L194.5 574H285.5L372.5 839L460 574H550.5ZM983.734 574V925H898.234V714.5L819.734 925H750.734L671.734 714V925H586.234V574H687.234L785.734 817L883.234 574H983.734ZM1210.22 925L1156.72 847.5L1111.72 925H1019.22L1111.22 782.5L1016.72 646H1112.72L1166.22 723L1211.22 646H1303.72L1210.22 786.5L1306.22 925H1210.22Z" fill="url(#paint0_linear_8_2)"/>
<defs>
<linearGradient id="paint0_linear_8_2" x1="190" y1="750" x2="1309" y2="750" gradientUnits="userSpaceOnUse">
<stop stop-color="#81FF47"/>
<stop offset="1" stop-color="#3ADBFF"/>
</linearGradient>
</defs>
</svg>
